<?xml version="1.0" encoding="utf-8"?>
<!-- Generator: Adobe Illustrator 16.0.0, SVG Export Plug-In . SVG Version: 6.00 Build 0)  -->
<!DOCTYPE svg PUBLIC "-//W3C//DTD SVG 1.1//EN" "http://www.w3.org/Graphics/SVG/1.1/DTD/svg11.dtd">
<svg version="1.1" id="Layer_1" xmlns="http://www.w3.org/2000/svg" xmlns:xlink="http://www.w3.org/1999/xlink" x="0px" y="0px"
	 width="251px" height="290.103px" viewBox="0 0 251 290.103" enable-background="new 0 0 251 290.103" xml:space="preserve">
<line fill="#FFFFFF" stroke="#000000" stroke-miterlimit="10" x1="125.24" y1="290.103" x2="225.899" y2="264.361"/>
<polyline fill="#FFFFFF" stroke="#000000" stroke-miterlimit="10" points="225.899,264.361 246.402,73.149 246.203,40.329 "/>
<path fill="#FFFFFF" stroke="#000000" stroke-miterlimit="10" d="M246.402,73.149"/>
<path fill="#FFFFFF" stroke="#000000" stroke-miterlimit="10" d="M125.24,69.406"/>
<path fill="none" stroke="#000000" stroke-miterlimit="10" d="M125.24,13.648"/>
<path fill="none" stroke="#000000" stroke-miterlimit="10" d="M246.203,40.329c2.82-18.128-25.477-5.377-16.517,9.631
	c0.356,0.596,4.852,4.568,4.836,5.098c-0.237,7.955-5.713,1.978-42.014-1.754c-22.156-2.278-42.345-2.212-53.977-9.065
	c-6.989-4.119,3.595-17.495,4.834-21.526c6.445-20.96-13.696-12.462-18.126-18.128"/>
<line fill="#FFFFFF" stroke="#000000" stroke-miterlimit="10" x1="125.24" y1="290.103" x2="24.582" y2="264.361"/>
<polyline fill="#FFFFFF" stroke="#000000" stroke-miterlimit="10" points="24.582,264.361 4.079,73.149 4.278,40.329 "/>
<path fill="#FFFFFF" stroke="#000000" stroke-miterlimit="10" d="M4.079,73.149"/>
<path fill="none" stroke="#000000" stroke-miterlimit="10" d="M4.278,40.329c-2.82-18.128,25.477-5.377,16.516,9.631
	c-0.356,0.596-4.851,4.568-4.835,5.098c0.237,7.955,5.712,1.978,42.014-1.754c22.158-2.278,42.345-2.212,53.978-9.065
	c6.99-4.119-3.595-17.495-4.834-21.526c-6.446-20.96,13.696-12.462,18.125-18.128"/>
<path fill="#FFFFFF" stroke="#000000" stroke-miterlimit="10" d="M199.332,235.234"/>
<path fill="#FFFFFF" stroke="#000000" stroke-miterlimit="10" d="M23.542,128.907"/>
<path fill="none" stroke="#000000" stroke-miterlimit="10" d="M23.542,73.149"/>
<text transform="matrix(0.9287 0 0 1 60.9023 139.7646)"><tspan x="0" y="0" fill="none" stroke="#000000" font-family="'Consolas'" font-size="71.5163" letter-spacing="9.691">SOC</tspan><tspan x="-24.809" y="85.819" fill="none" stroke="#000000" font-family="'Consolas'" font-size="71.5163" letter-spacing="9.691">KING</tspan></text>
<path fill="none" stroke="#000000" stroke-miterlimit="10" d="M440.908,855.03"/>
</svg>
